<svg xmlns="http://www.w3.org/2000/svg" viewBox="0 0 4707.91 780"><path d="M1173.02 289.2c15.15 18.16 22.74 45.56 22.74 82.22v156.5h-79.84v-152.8c0-17.62-3.26-30.48-9.78-38.6-6.53-8.1-16.65-12.16-30.4-12.16-16.57 0-29.87 5.3-39.92 15.86s-15.07 24.68-15.07 42.3v145.4H940.9V155.17h79.84v147.5c9.16-13.4 20.88-23.53 35.16-30.4s30.22-10.3 47.85-10.3c31 0 54.1 9.08 69.26 27.23zm134.8 226.3c-20.8-11.1-36.84-26.78-48.1-47.06-11.3-20.27-16.92-44.15-16.92-71.64s5.63-51.37 16.92-71.64c11.28-20.27 27.3-35.86 48.1-46.8 20.8-10.92 44.94-16.4 72.43-16.4s51.63 5.47 72.43 16.4 36.83 26.53 48.1 46.8c11.28 20.27 16.92 44.15 16.92 71.64s-5.64 51.38-16.92 71.64c-11.3 20.27-27.32 35.95-48.1 47.06-20.8 11.1-44.94 16.65-72.43 16.65s-51.64-5.55-72.43-16.65zm130.6-118.7c0-25.02-5.02-43.7-15.07-56.04-10.05-12.33-24.4-18.5-43.1-18.5-38.78 0-58.16 24.85-58.16 74.55s19.38 74.55 58.16 74.55 58.16-24.85 58.16-74.55zm303.6 75.07l-4.23 58.16c-10.23 1.4-20.45 2.12-30.67 2.12-39.48 0-68.3-8.63-86.45-25.9-18.16-17.27-27.23-43.53-27.23-78.78v-99.4h-49.17V268.3h49.17v-76.14h79.84v76.14h65.03v59.75h-65.03v98.87c0 31.02 14.45 46.53 43.35 46.53 8.12 0 16.58-.53 25.4-1.6zm431.77-182.94c14.45 17.98 21.68 45.47 21.68 82.48v156.5h-79.84V374.06c0-17.62-2.73-30.3-8.2-38.07-5.47-7.75-14.72-11.63-27.76-11.63-15.16 0-26.96 5.3-35.42 15.86s-12.7 25.38-12.7 44.4V527.9h-79.84V374.06c0-17.62-2.74-30.3-8.2-38.07-5.47-7.75-14.72-11.63-27.76-11.63-15.16 0-26.96 5.3-35.42 15.86s-12.7 25.38-12.7 44.4V527.9h-79.84V268.3h77.72v34.9c8.1-13.4 18.94-23.6 32.52-30.67 13.56-7.05 29.16-10.57 46.8-10.57 38.4 0 64.15 16.04 77.2 48.1 8.46-14.8 20.26-26.52 35.42-35.16 15.15-8.63 31.9-12.95 50.23-12.95 29.62.01 51.64 9 66.1 26.97zm281.37 2.27c18.5 18.33 27.76 46.7 27.76 85.12v153.33h-75.6v-38.6c-5.3 13.4-14.1 23.88-26.44 31.46s-26.8 11.37-43.36 11.37c-17.63 0-33.57-3.53-47.85-10.58s-25.56-16.92-33.84-29.6c-8.3-12.7-12.42-26.78-12.42-42.3 0-19.03 4.84-34 14.54-44.94 9.7-10.92 25.3-18.85 46.8-23.8 21.5-4.93 50.93-7.4 88.3-7.4h13.75v-9.52c0-15.5-3.35-26.44-10.05-32.78s-18.33-9.52-34.9-9.52c-12.7 0-26.8 2.3-42.3 6.87a206.26 206.26 0 0 0-44.41 19.03l-21.15-53.4c14.8-9.16 33.05-16.83 54.72-23 21.68-6.16 41.85-9.25 60.54-9.25 38.8.02 67.43 9.2 85.93 27.5zm-62.65 172.1c9.52-10.4 14.27-23.88 14.27-40.45v-9h-9c-28.55 0-48.56 2.3-60 6.87-11.46 4.6-17.18 12.87-17.18 24.85 0 9.52 3.25 17.45 9.78 23.8 6.52 6.34 14.7 9.52 24.6 9.52 15.5.01 28.02-5.2 37.54-15.6zm335.73-134.02l-44.94 4.76c-22.2 2.12-37.9 8.38-47.06 18.77-9.17 10.4-13.75 24.24-13.75 41.5v135.35h-79.84v-259.6h76.66v43.88c13.04-29.96 40-46.35 80.9-49.17l23.26-1.6 4.78 66.1zm223.85 144.34l-4.23 58.16c-10.23 1.4-20.45 2.12-30.67 2.12-39.48 0-68.3-8.63-86.45-25.9-18.16-17.27-27.23-43.53-27.23-78.78v-99.4h-49.17v-59.75h49.17v-76.14h79.84v76.14h65.03v59.75h-65.03v98.87c0 31.02 14.45 46.53 43.35 46.53 8.1 0 16.57-.53 25.4-1.6zm80.43 26.96l16.4-38.6c26.44 20.45 57.28 30.67 92.53 30.67 17.27 0 30.48-2.9 39.65-8.72 9.16-5.82 13.75-14 13.75-24.6 0-9.16-3.1-16.4-9.25-21.68-6.17-5.3-16.84-9.7-32-13.22l-42.83-9.52c-22.92-5.3-40.18-13.92-51.8-25.9-11.63-11.98-17.45-27.14-17.45-45.47 0-23.26 9.43-42.12 28.3-56.57 18.85-14.45 43.62-21.68 74.28-21.68 18.32 0 35.77 2.9 52.34 8.72 16.56 5.82 30.84 14 42.83 24.58l-16.4 37.54c-25.38-20.1-51.64-30.14-78.78-30.14-16.22 0-29 3.17-38.33 9.52-9.34 6.35-14 15-14 25.9 0 8.8 2.9 15.95 8.72 21.4 5.82 5.47 15.07 9.6 27.76 12.42l43.88 10.05c25.02 5.64 43.36 14.36 55 26.17s17.45 27.23 17.45 46.26c0 23.26-9.43 41.7-28.3 55.25-18.86 13.57-44.33 20.36-76.4 20.36-44.77.02-80.55-10.9-107.33-32.76zm469.23-218.36c17.45 11.3 31 27.15 40.7 47.6s14.54 44.06 14.54 70.85c0 26.44-4.76 49.7-14.28 69.8s-23 35.6-40.45 46.53-37.46 16.4-60 16.4c-19.4 0-36.48-4.14-51.28-12.42s-26.1-20.17-33.84-35.7v139.58h-53.4v-353.2h53.4v42.3c7.75-15.5 19.03-27.5 33.84-35.95 14.8-8.46 31.9-12.7 51.28-12.7 22.22 0 42.05 5.64 59.5 16.9zm-18.24 185.32c12.7-15.68 19.03-37.98 19.03-66.88 0-29.25-6.43-52-19.3-68.2s-30.76-24.32-53.66-24.32c-23.26 0-41.16 7.93-53.66 23.8-12.52 15.86-18.77 38.42-18.77 67.68s6.25 51.8 18.77 67.68c12.5 15.86 30.4 23.8 53.66 23.8s41.25-7.85 53.93-23.54zM3801 291.2c16.74 17.27 25.1 43.54 25.1 78.78v159.67h-51.28v-42.83c-6.7 15.16-16.65 26.7-29.87 34.63s-28.64 11.9-46.26 11.9c-16.92 0-32.43-3.44-46.53-10.3s-25.1-16.47-33.04-28.82c-7.93-12.33-11.9-26.08-11.9-41.24 0-18.68 4.84-33.4 14.54-44.15s25.73-18.4 48.1-23c22.38-4.58 53.14-6.87 92.26-6.87h12.16v-15.33c0-19.74-4.15-34-12.42-42.83-8.3-8.8-21.77-13.22-40.45-13.22-29.26 0-58.5 9-87.77 26.97l-15.86-37.54c13.75-9.52 30.4-17.18 49.96-23s38.33-8.72 56.3-8.72c34.55.01 60.2 8.65 76.93 25.9zm-45.2 182.67c12.33-13.22 18.5-30.22 18.5-51.02V409.1h-9.52c-27.5 0-48.64 1.24-63.45 3.7-14.8 2.47-25.38 6.6-31.72 12.42s-9.52 14.2-9.52 25.1c0 12.34 4.5 22.65 13.48 30.93s20.53 12.42 34.63 12.42c19.38.02 35.25-6.6 47.6-19.8zm300.32-163.62l-32.25 3.17c-25.38 2.47-43.62 10.23-54.72 23.27s-16.65 29.6-16.65 49.7v143.28h-53.4V271.65h51.8v44.94c13.75-30.3 41.77-47.06 84.07-50.23l17.45-1.06 3.7 44.95zm272.7 219.4h-67.68l-122.13-121.6v121.6h-53.4V156.92h53.4v231.05l113.15-115.8h66.1L4196.12 395.9l132.7 133.76zm30.13 0V156.92h53.4v372.75h-53.4zm348.94-120.02h-182.4c3.87 54.64 31 81.95 81.42 81.95 29.6 0 56.4-9.7 80.36-29.08l16.4 37.54c-12 10.23-26.8 18.33-44.4 24.32-17.63 6-35.6 9-53.93 9-41.24 0-73.76-11.8-97.55-35.42-23.8-23.6-35.7-56.22-35.7-97.8 0-26.44 5.2-49.87 15.6-70.32 10.4-20.44 25.02-36.3 43.88-47.6 18.85-11.28 40.27-16.92 64.24-16.92 34.9 0 62.3 11.28 82.22 33.84 19.9 22.56 29.87 53.76 29.87 93.58v16.92zm-159.94-85.9c-12.16 12.87-19.48 31.28-21.94 55.25h135.88c-1.06-23.97-7.14-42.38-18.24-55.25-11.1-12.86-26.7-19.3-46.8-19.3-20.45 0-36.75 6.43-48.9 19.3z" fill="#353A40"/><path d="M754.88 428.44C585.4 501.26 501.32 585.32 428.5 754.8c-14.43 33.6-62.5 33.6-76.92 0-72.82-169.52-156.88-253.6-326.4-326.4-33.6-14.42-33.6-62.48 0-76.92 169.47-72.82 253.6-156.8 326.4-326.3 14.43-33.6 62.5-33.6 76.92 0 72.8 169.48 156.87 253.53 326.37 326.33 33.6 14.43 33.6 62.5.01 76.92z" fill="#ff8214"/></svg>