<svg xmlns="http://www.w3.org/2000/svg" width="24" height="24" viewBox="0 0 24 24"><path fill="#FFFFFF" fillRule="evenodd" d="M19.059 18.998c.141 0 .332-.083.426-.186C21.11 17.07 22 14.85 22 12.5c0-2.35-.889-4.57-2.515-6.314C19.39 6.083 19.2 6 19.059 6c-.126 0-.301.068-.392.153l-.776.74c-.208.198-.232.52-.038.73 1.063 1.147 1.925 3.332 1.925 4.877s-.862 3.73-1.925 4.876c-.194.21-.17.533.038.731l.776.739c.09.084.266.152.392.152zM4.94 19c.126 0 .301-.068.392-.153l.776-.738c.208-.198.232-.52.038-.73-1.063-1.145-1.925-3.326-1.925-4.869v-.018c0-1.543.862-3.724 1.925-4.868.194-.21.17-.533-.038-.731l-.776-.739c-.09-.084-.266-.152-.392-.152-.141 0-.332.083-.426.186C2.89 7.93 2 10.15 2 12.5c0 2.35.889 4.57 2.515 6.314.094.103.285.186.426.186zM7.7 16.374c.126 0 .304-.07.395-.155l.79-.752c.09-.084.164-.25.164-.371 0-.098-.051-.24-.113-.317-.455-.551-.824-1.572-.824-2.279 0-.707.37-1.728.824-2.279.062-.077.112-.219.112-.317 0-.12-.073-.287-.163-.37l-.79-.753c-.091-.085-.269-.155-.395-.155-.148 0-.344.09-.438.2-.758.88-1.373 2.525-1.373 3.674s.615 2.795 1.373 3.674c.094.11.29.2.438.2zm8.601 0c.148 0 .344-.089.438-.199.758-.88 1.373-2.525 1.373-3.674s-.615-2.795-1.373-3.674c-.094-.11-.29-.2-.438-.2-.127 0-.304.07-.395.155l-.79.753c-.09.083-.164.25-.164.37 0 .098.051.24.113.317.455.551.824 1.572.824 2.279 0 .707-.37 1.728-.824 2.279-.062.077-.113.219-.113.317 0 .12.074.287.164.37l.79.753c.091.085.268.155.395.155zM12 14.397c1.073 0 1.944-.85 1.944-1.896 0-1.046-.87-1.896-1.944-1.896-1.073 0-1.944.85-1.944 1.896 0 1.046.87 1.896 1.944 1.896z"></path></svg>